<?xml version="1.0" encoding="UTF-8" standalone="no"?>
<!DOCTYPE svg PUBLIC "-//W3C//DTD SVG 1.1//EN" "http://www.w3.org/Graphics/SVG/1.1/DTD/svg11.dtd">
<svg width="100%" height="100%" viewBox="0 0 37500 16667" version="1.1" xmlns="http://www.w3.org/2000/svg" xmlns:xlink="http://www.w3.org/1999/xlink" xml:space="preserve" xmlns:serif="http://www.serif.com/" style="fill-rule:evenodd;clip-rule:evenodd;stroke-linejoin:round;stroke-miterlimit:2;">
    <g transform="matrix(4.16667,0,0,4.16667,0,0)">
        <rect x="0" y="0" width="9000" height="4000" style="fill:rgb(241,242,243);"/>
        <clipPath id="_clip1">
            <rect x="0" y="1148.91" width="2637.46" height="2851.09"/>
        </clipPath>
        <g clip-path="url(#_clip1)">
            <path d="M1419.37,2683.24L0,1148.91L0,4000L2637.46,4000L1672.32,2956.7L1419.37,2683.24Z" style="fill:url(#_Linear2);"/>
        </g>
        <clipPath id="_clip3">
            <rect x="366.486" y="0" width="2684.53" height="2956.7"/>
        </clipPath>
        <g clip-path="url(#_clip3)">
            <path d="M366.486,0C366.486,0 1117.82,1987.95 1419.37,2683.24L1672.32,2956.7L3051.02,0L366.486,0Z" style="fill:url(#_Linear4);"/>
        </g>
        <path d="M0,1148.91L1591.18,2868.97L840.227,0L0,0L0,1148.91Z" style="fill:url(#_Linear5);"/>
    </g>
    <defs>
        <linearGradient id="_Linear2" x1="0" y1="0" x2="1" y2="0" gradientUnits="userSpaceOnUse" gradientTransform="matrix(302.096,-2375.57,2375.57,302.096,1133.67,4029.69)"><stop offset="0" style="stop-color:rgb(233,233,232);stop-opacity:1"/><stop offset="1" style="stop-color:white;stop-opacity:1"/></linearGradient>
        <linearGradient id="_Linear4" x1="0" y1="0" x2="1" y2="0" gradientUnits="userSpaceOnUse" gradientTransform="matrix(2808.12,-1881.23,1881.23,2808.12,560.184,2247.8)"><stop offset="0" style="stop-color:rgb(233,233,232);stop-opacity:1"/><stop offset="1" style="stop-color:white;stop-opacity:1"/></linearGradient>
        <linearGradient id="_Linear5" x1="0" y1="0" x2="1" y2="0" gradientUnits="userSpaceOnUse" gradientTransform="matrix(492.965,-2324.53,2324.53,492.965,493.607,2858.46)"><stop offset="0" style="stop-color:rgb(233,233,232);stop-opacity:1"/><stop offset="1" style="stop-color:white;stop-opacity:1"/></linearGradient>
    </defs>
</svg>
