<?xml version="1.0" encoding="utf-8"?>
<!-- Generator: Adobe Illustrator 28.0.0, SVG Export Plug-In . SVG Version: 6.00 Build 0)  -->
<svg version="1.1" id="Layer_1" xmlns="http://www.w3.org/2000/svg" xmlns:xlink="http://www.w3.org/1999/xlink" x="0px" y="0px"
	 viewBox="0 0 512 512" style="enable-background:new 0 0 512 512;" xml:space="preserve">
<g>
	<g transform="translate(0,0)">
		<path d="M345,45.8c-1.8-4-6.7-13.5-17.6-20.4c-13.4-8.5-26.9-7.4-30.8-6.9c39-23.1,69.5-20.8,102.4-25.1
			c33.2-32.6,62.3-63.2,72.6-106.5l0,0c7.5-31.7-6.1-53.2-23.5-59.4c-8.7-3.1-18.6-2.6-29.2,3.2c-10.5,5.8-21.5,17.3-30.7,36.5
			c-5,14.9-5.1,25.5-3.3,31.7c1.8,6.3,4.8,8.7,8.7,9.8c7.6,2.3,21.2-3.2,26.2-18.7l17.8,5.7c-7.7,23.7-29.9,36.6-49.3,30.9
			c-9.7-2.9-18-11.1-21.3-22.5c-3.3-11.5-2.3-25.8,3.7-43.5l0.2-0.5l0.2-0.5c10.5-22.2,24-37.1,38.8-45.3
			c14.8-8.2,30.8-9.4,44.5-4.5c27.5,9.8,44.6,42.6,35.4,81.3l0,0c-1.7,7.3-4,14.3-6.5,21c4.1,30.6,12.2,58.7,0,99.6
			c-7.1-20-16.8-36.8-34.2-43.9c-18.4,21.9-40.1,41.5-60.9,62.3c-20,20-39.2,41-54.6,66.3c11.3,25.3,23.3,49.6,22.3,88.2
			c-2.2-4.6-8.1-15.2-20.5-23c-10.3-6.5-20.3-8-25.4-8.4c-1.4,5.6-3,11.4-4.8,17.5c-2.3,7.4-4.7,14.3-7.1,20.8
			c-1.6-0.8-3.6-1.7-6.1-2.3c-4.2-1.1-7.9-1-10.3-0.7c1.2-8.1,2.9-16.5,5-25.1C298.9,112.9,322.9,73.8,345,45.8z"/>
	</g>
	<g>
		<g transform="translate(0,0)">
			<path d="M-131.2,403c-9.5,6.9-18.9,14.9-28.2,24.1c-5.3-3.3-11.2-6.3-14.9-11.6c45.2-45.4,93.7-63.5,140.3-72.6
				c2-20.5-9.9-37.2-26.4-52.6c45,5.6,67.7,26.2,96.3,42.9c39.5-4.6,75.7-9.9,107-28.7c2,6.4,4.9,12.7,7.7,19.1
				c-14.7,25.8-25.9,51.9-59.4,75.9c6.7-20.1,9.3-39.3-0.1-55.6c-28,6.1-57.2,8.2-86.3,11.9c-28,3.5-56.1,8.3-83.8,18.9
				c-6.6,26.9-12,53.5-36.4,83.4C-114.1,436.2-116.8,416.4-131.2,403z"/>
		</g>
		<g transform="translate(0,0)">
			<path d="M181.7,281.4c-22.8-10.7-33.2-28.5-39.4-48.6c-23.4,33.6-18.4,60.6-17.9,88.7c7.8,4.5,15.8,8.9,22.7,13.8
				c23.3-26.9,60.7-44.8,102.5-62.7c-2.2-6.7-2.6-13.9-4-20.5C223.5,261.3,201.7,270.6,181.7,281.4z"/>
			<path d="M273.6,230.1c7.6-7.3,11.8-13.8,14.2-18.4c1.1-2.1,3.4-6.9,8.7-17.1c0.8-1.5,1.4-2.8,1.9-3.7c-1.7-1-3.6-1.9-5.8-2.8
				c-3.8-1.5-7.3-2.4-10.1-2.8c-0.1,0.7-0.4,1.8-0.7,3.1c-5.6,21.4-20.8,31.8-45.3,55.9c-4.6,4.6-11.3,11.3-19.2,19.9
				c2,6.4,3.5,13.8,6,20.2c1.2-1.3,2.5-2.6,3.7-3.9c31.9-5,61.8-3.5,99.1-27C304,252.1,284.7,246.9,273.6,230.1z"/>
		</g>
	</g>
	<path d="M294.9,199.8"/>
	<path d="M300.9,188"/>
	<path d="M288.9,181.4c-1.1,0.9-2.1,1.7-3.2,2.6"/>
	<path d="M299.2,190.6"/>
	<path d="M302.9,149.1c-1-3.9-2-7.7-3-11.6"/>
	<path d="M289.4,184.2c1.8,3.4,3.5,6.7,5.3,10.1"/>
	<path d="M297.2,180.7c0.4,2.1,0.7,4.3,1.1,6.4"/>
</g>
</svg>
