<?xml version="1.0" encoding="utf-8"?>
<!-- Generator: Adobe Illustrator 28.0.0, SVG Export Plug-In . SVG Version: 6.00 Build 0)  -->
<svg version="1.1" id="Layer_1" xmlns="http://www.w3.org/2000/svg" xmlns:xlink="http://www.w3.org/1999/xlink" x="0px" y="0px"
	 viewBox="0 0 512 512" style="enable-background:new 0 0 512 512;" xml:space="preserve">
<g transform="translate(-12,144)">
	<path d="M266.1-125.2C155-125.2,61.9-48.8,36.5,54.4c-11.9,70.7,11.2,143.7,60,194.2c-5,28.4-5.7,61.8-5.7,100.5h18.7
		c0-57,2.1-100.7,14.9-130.7c12.8-30,34.9-48,81.4-56.7l15.6-2.9l-10.1-12.2C194.9,126.8,184,98.4,184,66.7
		c0-30.6,9.8-58.1,25.1-77.7c15.3-19.5,35.7-31,58-31s42.7,11.4,58,31c15.3,19.5,25.1,47.1,25.1,77.7c0,31.1-9.6,59-25.2,78.5
		l-10,12.6l15.9,2.5c50.7,8,72.2,26,83.8,56.4c11.6,30.4,11.5,75.1,11.5,132.5h18.7c0-30.1,0.2-57.1-1.5-81.1
		c36.9-41.7,59.3-96.5,59.3-156.7C502.6-19.4,396.8-125.2,266.1-125.2L266.1-125.2z M274.3-81.7c30.1,0.1,60.5,7.2,88.2,22
		c99,52.6,132.6,179.6,80.5,276.8c-1.8,3.4-3.7,6.7-5.7,10c-1.5-5.9-3.2-11.6-5.3-17c-0.9-2.3-1.9-4.6-2.9-6.9
		c43.4-87.6,12.4-199.7-75.4-246.4c-25-13.3-52.3-19.7-79.4-19.8C214.6-63.2,156-32.8,126.6,22.8c-25.9,48.9-22.6,108,5.2,152.8
		c-4.8,4.5-9.1,9.3-12.9,14.6c-34-50.9-38.8-119.6-8.8-176.2C143-48,208-81.9,274.3-81.7L274.3-81.7z M360.9,17.2
		c37.6,37.2,50.2,94.9,32.6,145.5c-5.1-3.2-10.7-6.2-16.8-8.8c10.2-31.7,6.9-66.3-8.1-95C368,44.2,365.3,30.2,360.9,17.2L360.9,17.2
		z M169.6,30.1c-2.8,11.6-4.2,23.9-4.2,36.6c0,7.5,0.5,14.8,1.5,21.9c-1.9,21.1,3.1,42.4,14.2,60.1c-6.4,1.9-12.3,4.2-17.9,6.6
		c-19.1-32.7-21-74.9-2.8-110.2C163.1,39.8,166.2,34.8,169.6,30.1L169.6,30.1z M230,59.5c-15.8,0.2-19.2,4.6-24.5,8.1
		c12.5,12,36.9,10.8,47.7,0C248.2,63.6,242.9,59.3,230,59.5L230,59.5z M304.7,59.7c-15.8,0.2-19.2,4.6-24.5,8.1
		c12.5,12,36.9,10.8,47.7,0C322.9,63.8,317.5,59.5,304.7,59.7L304.7,59.7z"/>
</g>
</svg>
